# xmcd CD database file
#
# Track frame offsets:
#	150
#	20690
#	41823
#	63648
#	88253
#	112268
#	131375
#	154172
#	177568
#	203907
#	220775
#	242008
#	270504
#	298167
#	328597
#
# Disc length: 4736 seconds
#
# Revision: 0
# Processed by: cddbd v1.5.2PL0 Copyright (c) Steve Scherf et al.
# Submitted via: CDex 1.70beta2
#
DISCID=ec127e0f
DTITLE=Sixteen Horsepower - Live at Karo Club, Wesel, Germany - 22 mars 2001
DYEAR=2001
DGENRE=Country alternative
TTITLE0=American Wheeze
TTITLE1=I Seen what I Saw
TTITLE2=Wayfaring Stranger
TTITLE3=Cinder Alley
TTITLE4=Straw Foot
TTITLE5=Clogger
TTITLE6=Harm's Way
TTITLE7=Haw
TTITLE8=Poor Mouth
TTITLE9=Praying Arm Lane
TTITLE10=Burning Bush
TTITLE11=Splinters
TTITLE12=Silver Saddle
TTITLE13=Phyllis Ruth
TTITLE14=25 Hours (Joy Division Cover)
EXTD=YEAR: 2001
EXTT0=
EXTT1=
EXTT2=
EXTT3=
EXTT4=
EXTT5=
EXTT6=
EXTT7=
EXTT8=
EXTT9=
EXTT10=
EXTT11=
EXTT12=
EXTT13=
EXTT14=
PLAYORDER=
